<svg width="167" height="27" viewBox="0 0 167 27" fill="none" xmlns="http://www.w3.org/2000/svg">
<path d="M16.7953 9.10651C17.2484 8.6717 17.7636 8.29915 18.3408 7.9892C19.5778 7.32486 20.9828 6.99514 22.5507 6.99514C24.005 6.99514 25.3081 7.29058 26.4549 7.88649C27.6307 8.4634 28.5516 9.36316 29.2164 10.578M16.7953 9.10651L29.0414 10.6747M16.7953 9.10651V7.4628V7.2628H16.5953H11.6101H11.4101V7.4628V25.4628V25.6628H11.6101H16.8295H17.0295V25.4628V16.5632C17.0295 15.4685 17.2047 14.5882 17.5426 13.9113M16.7953 9.10651L17.5426 13.9113M29.2164 10.578C29.2166 10.5782 29.2167 10.5785 29.2168 10.5787L29.0414 10.6747M29.2164 10.578C29.2163 10.5778 29.2162 10.5775 29.216 10.5773L29.0414 10.6747M29.2164 10.578C29.8847 11.7767 30.2116 13.3075 30.2116 15.158V25.4628V25.6628H30.0116H24.7923H24.5923V25.4628V15.9609C24.5923 14.5357 24.2737 13.5246 23.676 12.8857L23.6736 12.8831L23.6736 12.8831C23.0959 12.2435 22.2636 11.9119 21.1455 11.9119C20.35 11.9119 19.6356 12.0836 18.9979 12.4237L18.9957 12.4248L18.9957 12.4248C18.3896 12.7384 17.9048 13.2305 17.5426 13.9113M29.0414 10.6747C29.6882 11.8345 30.0116 13.329 30.0116 15.158V25.2628V25.4628H29.8116H24.9923H24.7923V25.2628V15.9609C24.7923 14.5111 24.4689 13.4405 23.822 12.749C23.1975 12.0576 22.3053 11.7119 21.1455 11.7119C20.3202 11.7119 19.573 11.8903 18.9038 12.2472C18.257 12.5818 17.744 13.1059 17.3648 13.8197M17.5426 13.9113C17.5429 13.9106 17.5433 13.9098 17.5437 13.9091L17.3648 13.8197M17.3648 13.8197C17.0079 14.5334 16.8295 15.4479 16.8295 16.5632V25.2628L17.3648 13.8197ZM0.8 25.4628V25.6628H1H6.42007H6.62007V25.4628V2.04272V1.84272H6.42007H1H0.8V2.04272V25.4628ZM37.0158 24.2714L37.0174 24.2728C38.247 25.3864 39.9513 25.9305 42.1033 25.9305C42.9212 25.9305 43.7066 25.8396 44.459 25.6572L44.459 25.6572L44.463 25.6561C45.2401 25.4505 45.9097 25.1515 46.468 24.7561L46.5945 24.6665L46.5392 24.5216L45.134 20.8413L45.0382 20.5903L44.8252 20.7541C44.2847 21.1699 43.6264 21.3818 42.8393 21.3818C42.1898 21.3818 41.6992 21.1949 41.3433 20.84C40.9877 20.4636 40.7977 19.9281 40.7977 19.2063V12.0792H45.081H45.281V11.8792V7.86429V7.66429H45.081H40.7977V3.48139V3.28139H40.5977H35.3784H35.1784V3.48139V7.66429H32.6014H32.4014V7.86429V11.8792V12.0792H32.6014H35.1784V19.2732C35.1784 21.451 35.7805 23.1292 37.0158 24.2714Z" fill="#F8F113" stroke="black" stroke-width="0.4"/>
<path d="M87.5931 25.7641C85.4519 25.7641 83.5783 25.3626 81.9723 24.5596C80.3887 23.7344 79.1508 22.6191 78.2586 21.2139C77.3887 19.7864 76.9537 18.1693 76.9537 16.3626C76.9537 14.5559 77.3775 12.95 78.2251 11.5448C79.095 10.1173 80.2883 9.01316 81.805 8.23249C83.3218 7.42952 85.0281 7.02803 86.924 7.02803C88.7084 7.02803 90.3366 7.39606 91.8088 8.13212C93.2809 8.84587 94.4519 9.90535 95.3218 11.3106C96.1917 12.7158 96.6266 14.4221 96.6266 16.4295C96.6266 16.6526 96.6154 16.9091 96.5931 17.199C96.5708 17.489 96.5485 17.7567 96.5262 18.002H82.1731V14.6563H93.147L90.7381 15.5931C90.7604 14.7678 90.6043 14.0541 90.2697 13.4518C89.9575 12.8496 89.5114 12.3812 88.9314 12.0466C88.3738 11.712 87.7158 11.5448 86.9575 11.5448C86.1991 11.5448 85.5299 11.712 84.95 12.0466C84.3924 12.3812 83.9575 12.8607 83.6452 13.4853C83.3329 14.0875 83.1768 14.8013 83.1768 15.6265V16.5968C83.1768 17.489 83.3552 18.2585 83.7121 18.9054C84.0913 19.5522 84.6266 20.0541 85.318 20.4109C86.0095 20.7455 86.8348 20.9128 87.7939 20.9128C88.6861 20.9128 89.4444 20.7901 90.069 20.5448C90.7158 20.2771 91.3515 19.8756 91.976 19.3403L95.3218 22.8199C94.4519 23.779 93.3812 24.515 92.1099 25.028C90.8385 25.5187 89.3329 25.7641 87.5931 25.7641Z" fill="#333333"/>
<path d="M104.283 25.463L96.8219 7.32915H103.346L109.301 22.4853H106.023L112.279 7.32915H118.335L110.84 25.463H104.283Z" fill="#333333"/>
<path d="M128.99 25.7641C126.849 25.7641 124.975 25.3626 123.369 24.5596C121.785 23.7344 120.548 22.6191 119.655 21.2139C118.785 19.7864 118.351 18.1693 118.351 16.3626C118.351 14.5559 118.774 12.95 119.622 11.5448C120.492 10.1173 121.685 9.01316 123.202 8.23249C124.719 7.42952 126.425 7.02803 128.321 7.02803C130.105 7.02803 131.733 7.39606 133.206 8.13212C134.678 8.84587 135.849 9.90535 136.719 11.3106C137.588 12.7158 138.023 14.4221 138.023 16.4295C138.023 16.6526 138.012 16.9091 137.99 17.199C137.968 17.489 137.945 17.7567 137.923 18.002H123.57V14.6563H134.544L132.135 15.5931C132.157 14.7678 132.001 14.0541 131.667 13.4518C131.354 12.8496 130.908 12.3812 130.328 12.0466C129.771 11.712 129.113 11.5448 128.354 11.5448C127.596 11.5448 126.927 11.712 126.347 12.0466C125.789 12.3812 125.354 12.8607 125.042 13.4853C124.73 14.0875 124.574 14.8013 124.574 15.6265V16.5968C124.574 17.489 124.752 18.2585 125.109 18.9054C125.488 19.5522 126.023 20.0541 126.715 20.4109C127.406 20.7455 128.232 20.9128 129.191 20.9128C130.083 20.9128 130.841 20.7901 131.466 20.5448C132.113 20.2771 132.748 19.8756 133.373 19.3403L136.719 22.8199C135.849 23.779 134.778 24.515 133.507 25.028C132.235 25.5187 130.73 25.7641 128.99 25.7641Z" fill="#333333"/>
<path d="M140.954 25.463V0.637695H147.311V25.463H140.954Z" fill="#333333"/>
<path d="M158.033 25.7641C156.494 25.7641 154.989 25.5857 153.517 25.2288C152.067 24.8719 150.896 24.4258 150.004 23.8905L151.911 19.541C152.758 20.0541 153.751 20.4667 154.888 20.779C156.026 21.0689 157.141 21.2139 158.234 21.2139C159.305 21.2139 160.041 21.1024 160.442 20.8793C160.866 20.6563 161.078 20.3552 161.078 19.976C161.078 19.6191 160.877 19.3626 160.476 19.2065C160.097 19.028 159.584 18.8942 158.937 18.805C158.312 18.7158 157.621 18.6154 156.862 18.5039C156.104 18.3923 155.335 18.2474 154.554 18.0689C153.796 17.8682 153.093 17.5782 152.446 17.199C151.822 16.7976 151.32 16.2622 150.941 15.5931C150.561 14.9239 150.372 14.0764 150.372 13.0503C150.372 11.8905 150.706 10.8645 151.375 9.97227C152.067 9.05777 153.071 8.34402 154.387 7.83101C155.703 7.29569 157.309 7.02803 159.204 7.02803C160.476 7.02803 161.758 7.16186 163.052 7.42952C164.368 7.67487 165.472 8.05405 166.364 8.56707L164.457 12.8831C163.565 12.37 162.673 12.0243 161.781 11.8459C160.888 11.6451 160.041 11.5448 159.238 11.5448C158.167 11.5448 157.409 11.6674 156.963 11.9128C156.539 12.1581 156.327 12.4593 156.327 12.8161C156.327 13.173 156.517 13.4518 156.896 13.6526C157.275 13.831 157.777 13.976 158.401 14.0875C159.048 14.1767 159.751 14.2771 160.509 14.3886C161.268 14.4778 162.026 14.6228 162.784 14.8236C163.565 15.0243 164.268 15.3254 164.892 15.7269C165.539 16.1061 166.052 16.6303 166.431 17.2994C166.81 17.9462 167 18.7827 167 19.8087C167 20.9239 166.654 21.9277 165.963 22.8199C165.294 23.712 164.29 24.4258 162.952 24.9611C161.636 25.4964 159.996 25.7641 158.033 25.7641Z" fill="#333333"/>
<path d="M51.1859 25.8813V2.46118H62.2602C64.8476 2.46118 67.1227 2.94074 69.0855 3.89985C71.0483 4.85895 72.5762 6.2084 73.6691 7.94817C74.7844 9.68795 75.342 11.7623 75.342 14.1712C75.342 16.5578 74.7844 18.6322 73.6691 20.3943C72.5762 22.1341 71.0483 23.4835 69.0855 24.4426C67.1227 25.4017 64.8476 25.8813 62.2602 25.8813H51.1859ZM57.8104 20.595H61.9925C63.3308 20.595 64.4907 20.3497 65.4721 19.859C66.4758 19.3459 67.2565 18.6099 67.8141 17.6508C68.3717 16.6694 68.6505 15.5095 68.6505 14.1712C68.6505 12.8106 68.3717 11.6508 67.8141 10.6917C67.2565 9.73256 66.4758 9.00765 65.4721 8.51694C64.4907 8.00393 63.3308 7.74743 61.9925 7.74743H57.8104V20.595Z" fill="#333333"/>
<rect x="55.368" y="2.46118" width="7.31877" height="6.27323" fill="white"/>
<rect x="51.1859" y="2.729" width="7.31877" height="10.4554" fill="white"/>
<path d="M51.3359 2.61118H57.3425L51.3359 7.37833V2.61118Z" fill="#F8F113" stroke="black" stroke-width="0.3"/>
</svg>
